<?xml version="1.0"?>
<svg xmlns="http://www.w3.org/2000/svg" xmlns:xlink="http://www.w3.org/1999/xlink" xmlns:svgjs="http://svgjs.com/svgjs" version="1.1" width="512" height="512" x="0" y="0" viewBox="0 0 421.594 421.594" style="enable-background:new 0 0 512 512" xml:space="preserve" class=""><g><path xmlns="http://www.w3.org/2000/svg" d="m202.792969 0c-50.15625 1.871094-97.984375 21.628906-134.839844 55.699219l38.257813 38.257812c26.667968-23.972656 60.769531-38.042969 96.582031-39.851562zm0 0" fill="#26002e" data-original="#000000" style="" class=""/><path xmlns="http://www.w3.org/2000/svg" d="m94.394531 315.882812c-24.238281-26.738281-38.472656-61.039062-40.289062-97.082031h-54.10156275c1.87890575 50.382813 21.80859375 98.414063 56.15234375 135.328125zm0 0" fill="#26002e" data-original="#000000" style="" class=""/><path xmlns="http://www.w3.org/2000/svg" d="m365.441406 67.46875-38.246094 38.242188c24.238282 26.738281 38.476563 61.042968 40.292969 97.089843h54.101563c-1.878906-50.386719-21.804688-98.417969-56.148438-135.332031zm0 0" fill="#26002e" data-original="#000000" style="" class=""/><path xmlns="http://www.w3.org/2000/svg" d="m202.792969 421.59375v-54.101562c-36.042969-1.816407-70.34375-16.054688-97.082031-40.292969l-38.246094 38.246093c36.914062 34.34375 84.945312 54.269532 135.328125 56.148438zm0 0" fill="#26002e" data-original="#000000" style="" class=""/><path xmlns="http://www.w3.org/2000/svg" d="m354.125 56.15625c-36.914062-34.347656-84.945312-54.277344-135.332031-56.15625v54.101562c36.046875 1.816407 70.351562 16.058594 97.089843 40.296876zm0 0" fill="#26002e" data-original="#000000" style="" class=""/><path xmlns="http://www.w3.org/2000/svg" d="m94.84375 105.214844-38.238281-38.234375c-34.617188 36.972656-54.71875 85.203125-56.605469 135.820312h54.101562c1.828126-36.273437 16.234376-70.777343 40.742188-97.585937zm0 0" fill="#26002e" data-original="#000000" style="" class=""/><path xmlns="http://www.w3.org/2000/svg" d="m210.792969 351.691406c77.691406 0 140.894531-63.199218 140.894531-140.894531s-63.203125-140.898437-140.894531-140.898437c-77.691407 0-140.890625 63.210937-140.890625 140.902343 0 77.691407 63.203125 140.890625 140.890625 140.890625zm-69.917969-145.332031 63.265625-94.695313c1.484375-2.222656 3.980469-3.554687 6.648437-3.554687 2.671876 0 5.167969 1.332031 6.652344 3.554687l63.261719 94.699219c1.800781 2.691407 1.800781 6.199219 0 8.886719l-63.261719 94.699219c-1.484375 2.222656-3.980468 3.554687-6.652344 3.554687-2.667968 0-5.164062-1.332031-6.648437-3.554687l-63.265625-94.691407c-1.800781-2.695312-1.800781-6.207031 0-8.898437zm0 0" fill="#26002e" data-original="#000000" style="" class=""/><path xmlns="http://www.w3.org/2000/svg" d="m367.488281 218.800781c-1.808593 35.8125-15.878906 69.914063-39.847656 96.585938l38.253906 38.253906c34.070313-36.855469 53.832031-84.683594 55.699219-134.839844zm0 0" fill="#26002e" data-original="#000000" style="" class=""/><path xmlns="http://www.w3.org/2000/svg" d="m218.792969 421.59375c50.617187-1.886719 98.847656-21.988281 135.820312-56.605469l-38.234375-38.238281c-26.808594 24.507812-61.3125 38.910156-97.585937 40.738281zm0 0" fill="#26002e" data-original="#000000" style="" class=""/><path xmlns="http://www.w3.org/2000/svg" d="m264.4375 210.800781-53.644531-80.292969-53.644531 80.292969 53.644531 80.292969zm0 0" fill="#26002e" data-original="#000000" style="" class=""/></g></svg>
